<svg width="120" height="120" viewBox="0 0 120 120" fill="none" xmlns="http://www.w3.org/2000/svg">
<path d="M100.8 25C95.4998 19.686 88.474 16.4427 80.9917 15.8559C73.5094 15.269 66.0638 17.3773 60 21.8C53.6383 17.0682 45.72 14.9226 37.8396 15.7952C29.9592 16.6678 22.7022 20.4939 17.5299 26.5029C12.3575 32.512 9.65412 40.2576 9.96401 48.1801C10.2739 56.1025 13.5741 63.6133 19.2 69.2L50.25 100.3C52.8501 102.859 56.3519 104.293 60 104.293C63.6481 104.293 67.1499 102.859 69.75 100.3L100.8 69.2C106.638 63.3263 109.915 55.3814 109.915 47.1C109.915 38.8186 106.638 30.8737 100.8 25ZM93.75 62.3L62.7 93.35C62.3467 93.7068 61.9261 93.99 61.4627 94.1833C60.9993 94.3765 60.5021 94.4761 60 94.4761C59.4979 94.4761 59.0007 94.3765 58.5373 94.1833C58.0739 93.99 57.6533 93.7068 57.3 93.35L26.25 62.15C22.3288 58.1417 20.1331 52.7573 20.1331 47.15C20.1331 41.5427 22.3288 36.1583 26.25 32.15C30.2458 28.2049 35.6349 25.9928 41.25 25.9928C46.8651 25.9928 52.2542 28.2049 56.25 32.15C56.7148 32.6186 57.2678 32.9906 57.8771 33.2445C58.4864 33.4983 59.1399 33.629 59.8 33.629C60.4601 33.629 61.1136 33.4983 61.7229 33.2445C62.3322 32.9906 62.8852 32.6186 63.35 32.15C67.3458 28.2049 72.7349 25.9928 78.35 25.9928C83.9651 25.9928 89.3542 28.2049 93.35 32.15C97.3251 36.1058 99.5929 41.461 99.6677 47.0684C99.7425 52.6759 97.6182 58.0897 93.75 62.15V62.3Z" fill="#FF4141"/>
<path d="M101 59C101 71.7026 75.8071 97 62 97C48.1929 97 12 56 15 35.5C15 22.7975 71.6929 23 85.5 23C99.3071 23 101 46.2975 101 59Z" fill="#FF4141"/>
</svg>
