<svg width="500" height="500" viewBox="0 0 500 500" fill="none" xmlns="http://www.w3.org/2000/svg">
<path d="M250 427.083C250 444.342 264.073 458.58 281.141 456.021C371.269 442.513 442.513 371.269 456.021 281.141C458.58 264.073 444.342 250 427.083 250V250C409.824 250 396.181 264.155 392.527 281.023C380.472 336.664 336.664 380.472 281.023 392.527C264.155 396.181 250 409.824 250 427.083V427.083Z" fill="#FF9900"/>
<path d="M72.9167 250C55.6578 250 41.4202 235.927 43.9785 218.859C57.4872 128.73 128.73 57.4872 218.859 43.9784C235.927 41.4202 250 55.6577 250 72.9166V72.9166C250 90.1755 235.845 103.819 218.977 107.473C163.336 119.528 119.528 163.336 107.473 218.977C103.819 235.845 90.1756 250 72.9167 250V250Z" fill="#FF9900"/>
</svg>
