<svg width="100" height="100" viewBox="0 0 100 100" fill="none" xmlns="http://www.w3.org/2000/svg">
<circle cx="50" cy="50" r="48" fill="white" stroke="#E87B34" stroke-width="4"/>
<path d="M41.698 44V39.84H30.21V36.352L40.738 21.344H46.274V35.68H48.834V39.84H46.274V44H41.698ZM35.458 35.68H41.698V26.4L35.458 35.68ZM60.153 44.256C58.489 44.256 57.081 43.9573 55.929 43.36C54.777 42.7627 53.8383 41.9413 53.113 40.896C52.3877 39.8293 51.865 38.6027 51.545 37.216C51.225 35.808 51.065 34.3147 51.065 32.736C51.065 31.1147 51.225 29.6 51.545 28.192C51.8863 26.784 52.4197 25.5467 53.145 24.48C53.8917 23.4133 54.841 22.5813 55.993 21.984C57.1663 21.3867 58.5743 21.088 60.217 21.088C61.9237 21.088 63.353 21.3973 64.505 22.016C65.6783 22.6347 66.617 23.4987 67.321 24.608C68.0463 25.696 68.5583 26.9333 68.857 28.32C69.177 29.7067 69.337 31.1573 69.337 32.672C69.337 34.2293 69.177 35.7013 68.857 37.088C68.537 38.4747 68.025 39.712 67.321 40.8C66.617 41.8667 65.6783 42.7093 64.505 43.328C63.3317 43.9467 61.881 44.256 60.153 44.256ZM60.153 40.032C61.1983 40.032 62.0197 39.7973 62.617 39.328C63.2357 38.8373 63.6943 38.208 63.993 37.44C64.313 36.672 64.5157 35.872 64.601 35.04C64.7077 34.1867 64.761 33.3973 64.761 32.672C64.761 31.9893 64.7077 31.232 64.601 30.4C64.5157 29.5467 64.3237 28.7467 64.025 28C63.7263 27.232 63.2783 26.6027 62.681 26.112C62.0837 25.6213 61.273 25.376 60.249 25.376C59.225 25.376 58.4037 25.6213 57.785 26.112C57.1663 26.5813 56.697 27.2 56.377 27.968C56.0783 28.736 55.8757 29.536 55.769 30.368C55.6623 31.2 55.609 31.968 55.609 32.672C55.609 33.376 55.6517 34.1547 55.737 35.008C55.8437 35.8613 56.0463 36.672 56.345 37.44C56.6437 38.208 57.0917 38.8373 57.689 39.328C58.3077 39.7973 59.129 40.032 60.153 40.032ZM28.4128 74.256C26.8341 74.256 25.3621 74.0107 23.9968 73.52C22.6528 73.0293 21.5221 72.2507 20.6048 71.184C19.7088 70.1173 19.1434 68.7413 18.9088 67.056H23.5808C23.7728 67.7813 24.1248 68.368 24.6368 68.816C25.1488 69.2427 25.7568 69.552 26.4608 69.744C27.1861 69.936 27.9434 70.032 28.7328 70.032C29.3301 70.032 29.9168 69.9573 30.4928 69.808C31.0688 69.6587 31.5381 69.4027 31.9008 69.04C32.2848 68.6773 32.4768 68.1867 32.4768 67.568C32.4768 67.0987 32.3701 66.7147 32.1568 66.416C31.9648 66.1173 31.6768 65.8827 31.2928 65.712C30.9301 65.52 30.4821 65.3493 29.9488 65.2C29.5008 65.072 29.0314 64.9653 28.5408 64.88C28.0714 64.7947 27.6021 64.688 27.1328 64.56C26.6848 64.432 26.2474 64.2827 25.8208 64.112C25.0101 63.8987 24.2314 63.6427 23.4848 63.344C22.7381 63.024 22.0768 62.6293 21.5008 62.16C20.9248 61.6693 20.4661 61.0613 20.1248 60.336C19.8048 59.6107 19.6448 58.736 19.6448 57.712C19.6448 56.6027 19.8261 55.664 20.1888 54.896C20.5728 54.128 21.0741 53.4987 21.6927 53.008C22.3328 52.496 23.0368 52.1013 23.8048 51.824C24.5941 51.5467 25.3834 51.3547 26.1728 51.248C26.9621 51.1413 27.7088 51.088 28.4128 51.088C29.8848 51.088 31.2074 51.344 32.3808 51.856C33.5541 52.368 34.5141 53.136 35.2608 54.16C36.0074 55.184 36.4341 56.4747 36.5408 58.032H32.0928C32.0074 57.392 31.7728 56.8693 31.3888 56.464C31.0048 56.0587 30.5141 55.76 29.9168 55.568C29.3408 55.376 28.6901 55.28 27.9648 55.28C27.4954 55.28 27.0368 55.3227 26.5888 55.408C26.1408 55.4933 25.7354 55.632 25.3728 55.824C25.0314 55.9947 24.7541 56.2293 24.5408 56.528C24.3488 56.8267 24.2528 57.1893 24.2528 57.616C24.2528 58.0427 24.3701 58.416 24.6048 58.736C24.8394 59.0347 25.1808 59.3013 25.6288 59.536C26.0981 59.7493 26.6421 59.952 27.2608 60.144C27.9008 60.3573 28.5728 60.528 29.2768 60.656C29.9808 60.784 30.6528 60.9547 31.2928 61.168C32.1034 61.3813 32.8608 61.6373 33.5648 61.936C34.2688 62.2133 34.8874 62.576 35.4208 63.024C35.9541 63.4507 36.3701 64.0053 36.6688 64.688C36.9674 65.3493 37.1168 66.1707 37.1168 67.152C37.1168 68.4533 36.8714 69.5627 36.3808 70.48C35.9114 71.376 35.2608 72.1013 34.4288 72.656C33.6181 73.2107 32.6901 73.616 31.6448 73.872C30.5994 74.128 29.5221 74.256 28.4128 74.256ZM37.7508 74L46.5828 51.344H51.7028L60.4388 74H55.5108L54.1028 70.128H44.0868L42.6788 74H37.7508ZM45.5588 66H52.6628L49.1428 56.208L45.5588 66ZM62.8688 74V51.344H71.9888C73.1194 51.344 74.1968 51.4613 75.2208 51.696C76.2661 51.9093 77.2048 52.2827 78.0368 52.816C78.8688 53.3493 79.5194 54.096 79.9888 55.056C80.4794 55.9947 80.7248 57.2 80.7248 58.672C80.7248 59.76 80.5434 60.7413 80.1808 61.616C79.8181 62.4907 79.2848 63.2373 78.5808 63.856C77.8768 64.4747 77.0341 64.9547 76.0528 65.296L81.0768 74H75.9248L71.5088 66.032H67.4448V74H62.8688ZM67.4448 61.968H71.6688C72.3301 61.968 72.9274 61.9147 73.4608 61.808C74.0154 61.68 74.4848 61.488 74.8688 61.232C75.2741 60.976 75.5834 60.6347 75.7968 60.208C76.0314 59.7813 76.1488 59.2587 76.1488 58.64C76.1701 57.8507 75.9994 57.2427 75.6368 56.816C75.2954 56.368 74.8048 56.0587 74.1648 55.888C73.5461 55.696 72.8101 55.6 71.9568 55.6H67.4448V61.968Z" fill="#E87B34"/>
</svg>
