<svg width="100" height="100" viewBox="0 0 100 100" fill="none" xmlns="http://www.w3.org/2000/svg">
<path d="M50 85.4166C50 88.8684 52.8146 91.716 56.2282 91.2042C74.2538 88.5026 88.5026 74.2538 91.2042 56.2282C91.716 52.8146 88.8684 50 85.4166 50C81.9648 50 79.2362 52.831 78.5054 56.2046C76.0944 67.3328 67.3328 76.0944 56.2046 78.5054C52.831 79.2362 50 81.9648 50 85.4166Z" fill="#FAFAFA"/>
<path d="M14.5833 50C11.1316 50 8.28405 47.1854 8.79571 43.7718C11.4974 25.746 25.746 11.4974 43.7718 8.79568C47.1854 8.28404 50 11.1315 50 14.5833C50 18.0351 47.169 20.7638 43.7954 21.4946C32.6672 23.9056 23.9056 32.6672 21.4946 43.7954C20.7638 47.169 18.0351 50 14.5833 50Z" fill="#FAFAFA"/>
</svg>
