<svg width="90" height="90" viewBox="0 0 90 90" fill="none" xmlns="http://www.w3.org/2000/svg">
<path d="M74.1625 57.6625H57.175C56.1804 57.6625 55.2266 58.0576 54.5234 58.7609C53.8201 59.4641 53.425 60.4179 53.425 61.4125C53.425 62.4071 53.8201 63.3609 54.5234 64.0641C55.2266 64.7674 56.1804 65.1625 57.175 65.1625H66.175C62.0385 69.4853 56.704 72.4724 50.8569 73.7402C45.0097 75.008 38.917 74.4985 33.3617 72.2772C27.8063 70.0558 23.042 66.2241 19.681 61.2744C16.3199 56.3247 14.5157 50.483 14.5 44.5C14.5 43.5054 14.1049 42.5516 13.4017 41.8484C12.6984 41.1451 11.7446 40.75 10.75 40.75C9.75544 40.75 8.80161 41.1451 8.09835 41.8484C7.39509 42.5516 7 43.5054 7 44.5C7.01982 51.823 9.18333 58.9799 13.2235 65.0876C17.2637 71.1953 23.0037 75.9863 29.7353 78.8696C36.4668 81.7528 43.8952 82.602 51.1038 81.3124C58.3124 80.0228 64.9856 76.6508 70.3 71.6125V78.25C70.3 79.2446 70.6951 80.1984 71.3984 80.9017C72.1016 81.6049 73.0554 82 74.05 82C75.0446 82 75.9984 81.6049 76.7017 80.9017C77.4049 80.1984 77.8 79.2446 77.8 78.25V61.375C77.7907 60.4061 77.4068 59.4784 76.7287 58.7864C76.0506 58.0943 75.131 57.6915 74.1625 57.6625ZM44.5 7C34.8864 7.02742 25.6506 10.7459 18.7 17.3875V10.75C18.7 9.75544 18.3049 8.80161 17.6017 8.09835C16.8984 7.39509 15.9446 7 14.95 7C13.9554 7 13.0016 7.39509 12.2983 8.09835C11.5951 8.80161 11.2 9.75544 11.2 10.75V27.625C11.2 28.6196 11.5951 29.5734 12.2983 30.2766C13.0016 30.9799 13.9554 31.375 14.95 31.375H31.825C32.8196 31.375 33.7734 30.9799 34.4766 30.2766C35.1799 29.5734 35.575 28.6196 35.575 27.625C35.575 26.6304 35.1799 25.6766 34.4766 24.9734C33.7734 24.2701 32.8196 23.875 31.825 23.875H22.825C26.9592 19.5545 32.2903 16.5681 38.134 15.2992C43.9777 14.0302 50.0672 14.5365 55.621 16.7532C61.1748 18.9699 65.9395 22.7958 69.3034 27.7398C72.6673 32.6837 74.4769 38.5202 74.5 44.5C74.5 45.4946 74.8951 46.4484 75.5983 47.1516C76.3016 47.8549 77.2554 48.25 78.25 48.25C79.2446 48.25 80.1984 47.8549 80.9017 47.1516C81.6049 46.4484 82 45.4946 82 44.5C82 39.5754 81.03 34.6991 79.1455 30.1494C77.2609 25.5997 74.4987 21.4657 71.0165 17.9835C67.5343 14.5013 63.4003 11.7391 58.8506 9.85452C54.3009 7.96997 49.4246 7 44.5 7Z" fill="#424242"/>
</svg>
