<svg width="116" height="116" viewBox="0 0 116 116" fill="none" xmlns="http://www.w3.org/2000/svg">
<path d="M104.932 98.0683L87 80.2817C93.9605 71.603 97.3313 60.5873 96.4193 49.4996C95.5072 38.412 90.3817 28.0951 82.0967 20.6704C73.8116 13.2458 62.9967 9.27763 51.8758 9.58194C40.7548 9.88624 30.1732 14.4399 22.3065 22.3065C14.4399 30.1732 9.88624 40.7548 9.58194 51.8758C9.27763 62.9967 13.2458 73.8116 20.6704 82.0967C28.0951 90.3817 38.412 95.5072 49.4996 96.4193C60.5873 97.3313 71.603 93.9605 80.2817 87L98.0683 104.787C98.5177 105.24 99.0522 105.599 99.6412 105.845C100.23 106.09 100.862 106.216 101.5 106.216C102.138 106.216 102.77 106.09 103.359 105.845C103.948 105.599 104.482 105.24 104.932 104.787C105.803 103.885 106.29 102.681 106.29 101.428C106.29 100.174 105.803 98.9696 104.932 98.0683ZM53.1667 87C46.4751 87 39.9337 85.0157 34.3699 81.2981C28.806 77.5804 24.4695 72.2964 21.9087 66.1141C19.348 59.9319 18.678 53.1291 19.9834 46.5661C21.2889 40.0031 24.5112 33.9746 29.2429 29.2429C33.9746 24.5112 40.0031 21.2889 46.5661 19.9834C53.1291 18.678 59.9319 19.348 66.1141 21.9087C72.2964 24.4695 77.5804 28.806 81.2981 34.3699C85.0157 39.9337 87 46.4751 87 53.1667C87 62.1398 83.4354 70.7455 77.0904 77.0904C70.7455 83.4354 62.1398 87 53.1667 87Z" fill="#FAFAFA"/>
</svg>
