<svg width="108" height="134" viewBox="0 0 108 134" fill="none" xmlns="http://www.w3.org/2000/svg">
<path d="M106.6 50.6667C106.046 49.5672 105.198 48.6427 104.151 47.9955C103.104 47.3483 101.898 47.0037 100.667 47H67.3333V7C67.4049 5.53789 66.9932 4.09287 66.1618 2.888C65.3305 1.68313 64.1257 0.785379 62.7333 0.333332C61.3948 -0.107047 59.9512 -0.111996 58.6098 0.319196C57.2683 0.750387 56.0979 1.59554 55.2667 2.73333L1.93334 76.0667C1.26511 77.0324 0.863865 78.1576 0.770211 79.3283C0.676557 80.499 0.89382 81.6736 1.40001 82.7333C1.86615 83.945 2.67593 84.9942 3.72994 85.7521C4.78395 86.5101 6.03633 86.9438 7.33334 87H40.6667V127C40.6677 128.406 41.1131 129.775 41.9393 130.913C42.7655 132.05 43.9301 132.898 45.2667 133.333C45.9365 133.541 46.6322 133.653 47.3333 133.667C48.3852 133.669 49.4229 133.423 50.3614 132.948C51.2999 132.473 52.1127 131.783 52.7333 130.933L106.067 57.6C106.785 56.6053 107.215 55.4317 107.309 54.2084C107.403 52.9851 107.158 51.7595 106.6 50.6667ZM54 106.467V80.3333C54 78.5652 53.2976 76.8695 52.0474 75.6193C50.7971 74.369 49.1014 73.6667 47.3333 73.6667H20.6667L54 27.5333V53.6667C54 55.4348 54.7024 57.1305 55.9526 58.3807C57.2029 59.6309 58.8986 60.3333 60.6667 60.3333H87.3333L54 106.467Z" fill="#E87B34"/>
<path d="M38 50H70V83H38V50Z" fill="#E87B34"/>
<path d="M22 50H54V83H22L12 79.3283L22 50Z" fill="#E87B34"/>
<path d="M41 26H63V59H41V26Z" fill="#E87B34"/>
<path d="M32 42H54V59H32V42Z" fill="#E87B34"/>
<path d="M46 73H68V106H46V73Z" fill="#E87B34"/>
<path d="M46 73H68V106H46V73Z" fill="#E87B34"/>
<path d="M68 51H84V85L60.6667 97.24L68 51Z" fill="#E87B34"/>
<path d="M76 51H92V75H76V51Z" fill="#E87B34"/>
</svg>
