<svg width="79" height="79" viewBox="0 0 79 79" fill="none" xmlns="http://www.w3.org/2000/svg">
<ellipse cx="26.1538" cy="55.4317" rx="12.5132" ry="8.89048" transform="rotate(30.4035 26.1538 55.4317)" fill="#5451FF"/>
<ellipse cx="53.06" cy="55.2664" rx="12.5132" ry="8.89048" transform="rotate(137.513 53.06 55.2664)" fill="#5451FF"/>
<ellipse cx="39" cy="28.5" rx="22" ry="22.5" fill="#D1D5DB"/>
<path d="M72.461 58.2115L62.2328 40.6735C64.3258 36.8567 65.4161 32.5778 65.4031 28.232C65.4031 21.2748 62.6196 14.6026 57.665 9.68318C52.7103 4.76372 45.9903 2 38.9833 2C31.9764 2 25.2564 4.76372 20.3017 9.68318C15.347 14.6026 12.5635 21.2748 12.5635 28.232C12.5505 32.5778 13.6409 36.8567 15.7339 40.6735L5.50567 58.2115C5.17377 58.7822 4.99935 59.4298 5 60.0889C5.00066 60.748 5.17637 61.3952 5.50941 61.9654C5.84245 62.5355 6.32103 63.0083 6.89689 63.3361C7.47274 63.664 8.12548 63.8352 8.78928 63.8326H19.6214L25.1318 73.0513C25.3176 73.3568 25.5463 73.6344 25.8112 73.8757C26.5108 74.5453 27.4437 74.9211 28.4154 74.925H28.9438C29.5136 74.8476 30.0581 74.6419 30.5356 74.3236C31.0131 74.0054 31.411 73.583 31.699 73.0887L38.9833 60.6473L46.2677 73.2012C46.5599 73.6885 46.9597 74.1035 47.4369 74.4151C47.9142 74.7267 48.4565 74.9267 49.0229 74.9999H49.5513C50.5361 75.0058 51.4842 74.6293 52.1932 73.9507C52.4471 73.7231 52.6636 73.4576 52.8349 73.1637L58.3453 63.945H69.1774C69.8425 63.9476 70.4964 63.7757 71.073 63.4467C71.6497 63.1177 72.1285 62.6432 72.461 62.0713C72.8137 61.4885 73 60.8213 73 60.1414C73 59.4614 72.8137 58.7943 72.461 58.2115ZM28.3777 63.945L25.0186 58.3614C24.6878 57.8074 24.2189 57.3474 23.6569 57.0257C23.095 56.7041 22.459 56.5317 21.8105 56.5251H15.281L20.6782 47.2315C24.3948 50.7873 29.079 53.1844 34.1523 54.1268L28.3777 63.945ZM38.9833 46.9692C35.251 46.9692 31.6024 45.8702 28.499 43.8114C25.3956 41.7525 22.9769 38.8262 21.5485 35.4024C20.1202 31.9786 19.7465 28.2112 20.4747 24.5766C21.2028 20.9419 23.0001 17.6033 25.6393 14.9828C28.2785 12.3624 31.6411 10.5779 35.3017 9.85489C38.9624 9.13191 42.7568 9.50297 46.2051 10.9211C49.6533 12.3393 52.6006 14.7409 54.6742 17.8222C56.7478 20.9035 57.8546 24.5262 57.8546 28.232C57.8546 33.2014 55.8664 37.9673 52.3274 41.4812C48.7883 44.9951 43.9883 46.9692 38.9833 46.9692ZM56.1562 56.5251C55.5076 56.5317 54.8717 56.7041 54.3098 57.0257C53.7478 57.3474 53.2789 57.8074 52.9481 58.3614L49.589 63.945L43.8521 54.0143C48.9077 53.0527 53.5745 50.6578 57.2885 47.1191L62.6857 56.4127L56.1562 56.5251Z" fill="#252525"/>
</svg>
